<svg width="52" height="28" viewBox="0 0 52 28" fill="none" xmlns="http://www.w3.org/2000/svg">
<path d="M8.86778 0.374341V0.922267L9.37543 1.04314C10.1812 1.23652 10.2779 1.71193 10.5922 3.20261L11.3979 7.40874L9.13368 19.6807L6.02339 4.25817C5.66886 2.56604 5.55605 1.30904 6.82917 1.03507L7.41739 0.914212V0.374341H0.0526123V0.922267L0.801982 1.09954C1.55135 1.29293 1.8656 1.64746 2.37324 3.96809L7.36904 27.6175H8.65828L12.0023 9.75358L15.7088 27.6175H16.7321L21.5668 4.70134C22.1147 2.06647 22.3725 1.3171 23.2992 1.07536L24.0486 0.881975V0.374341H18.5854V0.922267L19.3911 1.08342C20.5676 1.31709 20.8496 2.06647 20.2936 5.11229L17.3526 19.6968L14.3712 4.27429C14.0489 2.74331 13.8555 1.32516 15.177 1.05119L16.0392 0.890039V0.342111L8.86778 0.374341ZM43.8706 0.44686V1.00284L44.8536 1.23652C45.7158 1.42991 46.0703 1.74415 46.0703 2.84807V21.9288C46.0703 24.056 46.0703 26.844 43.8706 26.844C42.6136 26.844 41.6306 25.7482 41.7031 24.9988C41.7836 23.7821 43.9109 23.8546 44.0237 21.8885C44.0696 21.6419 44.0634 21.3886 44.0055 21.1446C43.9477 20.9006 43.8393 20.6714 43.6875 20.4718C43.5357 20.2722 43.3439 20.1066 43.1242 19.9856C42.9045 19.8647 42.662 19.791 42.4121 19.7693C41.1955 19.6082 39.6967 20.6315 39.6564 22.6782C39.6564 25.3131 41.3485 27.7143 44.2976 27.7143C47.5611 27.7143 49.6963 25.5064 49.6963 21.2681V2.88835C49.6963 1.78445 49.9703 1.42991 50.7519 1.27681L51.6222 0.986724V0.438804L43.8706 0.44686ZM30.6156 0.293763C27.2716 0.293763 25.3861 3.0898 25.3861 6.73995C25.3861 13.5488 34.1611 16.1837 34.1611 22.3236C34.1611 25.2324 32.9363 26.844 31.1716 26.844C28.5367 26.844 26.6512 23.6612 26.1758 18.5848H25.5876V27.545H26.063C26.4578 26.2558 26.9654 26.1269 27.4006 26.1269C28.15 26.1269 28.9315 27.6982 31.2119 27.6982C34.717 27.6982 36.9973 24.6765 36.9973 20.5026C36.9973 12.316 28.2547 10.3096 28.2547 4.45155C28.2547 3.11397 28.6496 1.14789 30.6156 1.14789C33.4519 1.14789 34.6445 4.87862 35.1441 9.40707H35.7323V0.438804H35.265C35.0635 1.30098 34.709 1.69581 34.2013 1.69581C33.2908 1.69581 32.8315 0.285706 30.6559 0.285706L30.6156 0.293763ZM36.949 8.01308V8.10977V8.0292V8.01308Z" fill="#646464"/>
</svg>
