<svg width="90" height="28" viewBox="0 0 90 28" fill="none" xmlns="http://www.w3.org/2000/svg">
<path d="M4.03671 9.2252C4.03671 10.3137 4.33116 10.3941 5.58034 10.4387V10.8135H0.735287V10.4476C1.73463 10.4476 2.02909 10.2781 2.02909 9.23416V2.20301C2.02909 1.11443 1.73463 1.02521 0.770978 0.989512V0.632603H9.31005V2.89899H8.89961C8.56055 1.76579 8.14117 1.39104 6.13355 1.39104H4.58099C4.08132 1.39104 4.00102 1.47134 4.00102 1.9264V5.19213H5.78556C7.40951 5.19213 7.74857 4.89768 7.92703 3.85372H8.30179V7.4942H7.92703C7.71289 6.28071 7.08829 5.94165 5.78556 5.94165H4.00102V9.24303L4.03671 9.2252ZM14.164 9.2252C14.164 10.3137 14.4495 10.3941 15.7077 10.4387V10.8135H10.6039V10.4476C11.8173 10.4476 12.1564 10.2781 12.1564 9.23416V2.20301C12.1564 1.11443 11.9066 1.02521 10.6039 0.989512V0.632603H15.7077V1.01628C14.4942 1.01628 14.164 1.17689 14.164 2.22978V9.2252ZM26.2901 2.41715C26.2901 1.40889 26.0402 0.989512 24.8713 0.864593V0.489838H28.5118V0.864593C27.3786 0.989512 27.0841 1.39996 27.0841 2.41715V10.983H26.5667L19.5445 2.86329V8.84154C19.5445 9.84984 19.7943 10.2603 20.9632 10.3941V10.7689H17.3049V10.3941C18.438 10.2692 18.7325 9.85871 18.7325 8.84154V1.97102C18.6001 1.69196 18.4003 1.45034 18.151 1.26804C17.9017 1.08575 17.6109 0.968539 17.3049 0.927057V0.552297H20.1066L26.2543 7.6905V2.41715H26.2901ZM31.7687 7.1016L33.3212 3.04174L34.8648 7.1016H31.7687ZM39.1299 10.7777V10.4476C38.3268 10.4476 38.1752 10.1532 37.7915 9.18954L34.151 0.311383H33.6514L29.886 9.47507C29.8018 9.74689 29.6358 9.98616 29.4106 10.1602C29.1854 10.3343 28.9121 10.4346 28.6278 10.4476V10.8224H31.9203V10.4476C31.2065 10.4476 30.8763 10.2781 30.8763 9.77843C31.0137 9.13788 31.2078 8.51078 31.4563 7.90465H35.1861C35.4552 8.50721 35.6645 9.13487 35.8106 9.77843C35.8106 10.2781 35.4359 10.4476 34.7221 10.4476V10.8224L39.1299 10.7777ZM49.1413 2.41715C49.1413 1.40889 48.8914 0.989512 47.7225 0.864593V0.489838H51.363V0.864593C50.2298 0.989512 49.9353 1.39996 49.9353 2.41715V10.983H49.4L42.3778 2.86329V8.84154C42.3778 9.84984 42.6276 10.2603 43.7965 10.3941V10.7689H40.1382V10.3941C41.2714 10.2692 41.5569 9.85871 41.5569 8.84154V1.97102C41.4309 1.68915 41.234 1.44478 40.9853 1.2618C40.7366 1.07882 40.4448 0.963473 40.1382 0.927057V0.552297H42.9399L49.0877 7.6905L49.1413 2.41715ZM62.1506 8.3954C61.7222 9.23736 61.06 9.93788 60.2433 10.4127C59.4265 10.8876 58.4901 11.1165 57.5465 11.0722C54.2005 11.0722 52.1928 8.89507 52.1928 5.59365C52.1927 4.88303 52.3341 4.1795 52.6087 3.52407C52.8833 2.86866 53.2856 2.27447 53.7922 1.77615C54.2989 1.27783 54.8996 0.885366 55.5596 0.621625C56.2194 0.357887 56.9251 0.228158 57.6357 0.240001C58.6024 0.35582 59.5556 0.564994 60.4821 0.864593C60.7676 0.864593 60.8568 0.695062 61.1512 0.240001H61.6866L61.8919 3.66634H61.4725C60.8479 2.07809 59.8039 0.909211 57.9926 0.909211C55.5656 0.909211 54.5127 3.58604 54.5127 5.50443C54.5127 8.27048 55.6816 10.1532 58.2782 10.1532C59.0023 10.1132 59.7058 9.89729 60.3277 9.52417C60.9496 9.15105 61.4712 8.63189 61.8473 8.01172L62.1506 8.3954ZM67.0849 9.19841C67.0849 10.287 67.3793 10.3673 68.6375 10.4119V10.7867H63.5337V10.4476C64.7471 10.403 65.0773 10.2781 65.0773 9.23416V2.21193C65.0773 1.12335 64.7829 1.03413 63.5337 0.998436V0.632603H68.6375V1.01628C67.424 1.01628 67.0849 1.17689 67.0849 2.22978V9.19841ZM72.8579 7.11052L74.4105 3.05067L75.9541 7.11052H72.8579ZM80.2192 10.7867V10.4476C79.4162 10.4476 79.2555 10.1532 78.8808 9.18954L75.2403 0.320306H74.7496L70.9752 9.48394C70.8895 9.7542 70.7229 9.99155 70.4979 10.1639C70.2729 10.3362 70.0003 10.4353 69.7171 10.4476V10.8224H73.0274V10.4476C72.3136 10.4476 71.9835 10.2781 71.9835 9.77843C72.1208 9.13788 72.3148 8.51078 72.5635 7.90465H76.2843C76.5564 8.50695 76.7686 9.13459 76.9178 9.77843C76.9178 10.2781 76.543 10.4476 75.8292 10.4476V10.8224L80.2192 10.7867ZM81.1114 10.7867V10.4476C82.0751 10.403 82.3696 10.2781 82.3696 9.23416V2.20301C82.3696 1.11443 82.0751 1.03413 81.1114 0.989512V0.632603H85.8405V1.00736C84.7073 1.00736 84.4218 1.1769 84.4218 2.22085V9.44828C84.4218 10.0818 84.5824 10.287 85.7156 10.287C87.5537 10.287 88.6423 9.9569 89.5167 8.14557H89.9182L89.2044 10.9116H81.049V10.8224L81.1114 10.7867ZM2.91244 27.0618C4.09024 27.0618 4.37577 26.9012 4.37577 25.8483V17.9427H3.11766C1.94879 17.9427 1.44911 18.4513 1.11004 19.8165H0.690674L0.94051 17.1397H9.97924L10.2291 19.8165H9.80974C9.47063 18.3978 9.00668 17.9427 7.80211 17.9427H6.544V25.8483C6.544 26.9369 6.83846 27.0261 8.00733 27.0618V27.4454H3.07305V27.0618H2.91244ZM14.7975 25.8483C14.7975 26.9369 15.092 27.0261 16.3412 27.0618V27.4454H11.2374V27.0618C12.4508 27.0618 12.7899 26.9012 12.7899 25.8483V18.8261C12.7899 17.7376 12.4954 17.6483 11.2374 17.6126V17.2289H16.3412V17.5859C15.1277 17.5859 14.7975 17.7554 14.7975 18.7993V25.8483ZM27.1377 17.1486H30.7068V17.5233C29.7432 17.5233 29.4576 17.6929 29.4576 18.7369V25.8126C29.4576 26.9012 29.7432 26.9815 30.7068 27.0261V27.4009H26.0313V27.0261C27.0395 27.0261 27.3251 26.8565 27.3251 25.8126V18.5852L23.8898 27.5793H23.3545L19.9638 18.5852V25.5271C19.9638 26.5264 20.2137 26.9458 21.3826 27.0708V27.4544H17.7063V27.0708C18.8396 26.9458 19.1251 26.5354 19.1251 25.5271V18.4781C19.1251 17.7732 18.8396 17.5145 17.7063 17.5145V17.1397H21.4272L24.1575 24.2779L27.1377 17.1486ZM32.1166 27.4009V27.0261C33.0803 27.0261 33.3658 26.8565 33.3658 25.8126V18.8261C33.3658 17.7376 33.0803 17.6483 32.1166 17.6126V17.2289H40.6825V19.4953H40.2631C39.933 18.3621 39.5136 17.9873 37.506 17.9873H35.9534C35.4448 17.9873 35.3645 18.0677 35.3645 18.5227V21.7885H37.1491C38.7819 21.7885 39.112 21.494 39.2905 20.4501H39.6653V24.0906H39.2905C39.0853 22.877 38.4518 22.5825 37.1491 22.5825H35.3645V26.1517C35.3645 26.7852 35.5341 26.9904 37.3721 26.9904C39.2102 26.9904 40.2988 26.6602 41.1821 24.849H41.5569L40.843 27.5882H32.0274V27.4009H32.1166ZM43.0024 24.1887H43.3772C43.7965 25.5271 45.1617 26.9904 46.6429 26.9904C46.8766 27.0126 47.1124 26.9841 47.3341 26.9068C47.5559 26.8296 47.7583 26.7054 47.9277 26.5428C48.0971 26.3801 48.2295 26.1829 48.3157 25.9646C48.4019 25.7461 48.44 25.5117 48.4274 25.2772C48.4274 22.8949 43.0738 22.4755 43.0738 19.5488C43.1153 18.8088 43.4448 18.1144 43.9917 17.6141C44.5387 17.1139 45.2596 16.8475 46.0004 16.872C47.544 16.872 48.0884 17.4074 48.7575 17.4074C48.8995 17.4074 49.0358 17.351 49.1362 17.2506C49.2365 17.1501 49.293 17.014 49.293 16.872H49.6677V20.2626H49.293C49.1669 19.5723 48.8157 18.9431 48.2943 18.4734C47.7729 18.0036 47.1106 17.7198 46.4109 17.6662C46.2076 17.6445 46.0021 17.6665 45.808 17.7306C45.6139 17.7948 45.4357 17.8996 45.2854 18.0381C45.1351 18.1766 45.0159 18.3456 44.9362 18.5338C44.8564 18.7221 44.8177 18.9251 44.8226 19.1295C44.8226 21.2263 50.1762 21.2709 50.1762 24.9025C50.1682 25.3033 50.0776 25.698 49.9102 26.0621C49.7428 26.4264 49.5021 26.7521 49.2033 27.0192C48.9044 27.2863 48.5537 27.4889 48.173 27.6144C47.7924 27.7399 47.39 27.7857 46.9909 27.7489C45.2063 27.7489 44.7334 27.1242 44.0195 27.1242C43.7698 27.1242 43.6002 27.2938 43.4842 27.6597H42.9488L43.0024 24.1887Z" fill="#646464"/>
</svg>
