<svg width="42" height="32" viewBox="0 0 42 32" fill="none" xmlns="http://www.w3.org/2000/svg">
<path d="M5.94783 6.41508C4.31044 7.89751 3.71396 11.2565 6.66595 13.2202L18.4441 21.3002L12.7325 8.21739C11.536 5.13031 8.26241 4.45723 5.949 6.41508" fill="#646464"/>
<path d="M16.0874 0.0544874C14.1728 0.0936678 11.298 2.37315 12.5787 5.85436L18.485 19.7827L20.5604 5.13275C21.0411 1.49247 18.2862 -0.188782 16.0891 0.0544874" fill="#646464"/>
<path d="M21.4773 4.57359H22.5948C22.5948 4.57359 23.1913 4.57359 23.2725 4.85487C22.8328 5.21393 21.6352 5.25896 21.7954 7.17588L23.6732 19.7808L29.5385 5.81567C30.738 2.69702 28.2193 0.09298 25.9866 0.01345C25.8825 0.00643259 25.7778 0 25.669 0C23.6638 0 21.3662 1.45728 21.4784 4.57359" fill="#646464"/>
<path d="M29.3008 8.33624L23.7531 21.26L35.5265 13.1373C38.2404 11.2122 37.8031 8.13507 36.2867 6.61346C35.6499 5.89769 34.4803 5.34448 33.2418 5.34448C31.7797 5.34448 30.2119 6.12049 29.3038 8.33449" fill="#646464"/>
<path d="M34.2099 14.9776L23.1533 22.7014H36.7671C39.5601 22.7014 41.3554 19.8213 40.5571 17.1786C40.0221 15.5173 38.4431 14.2138 36.6063 14.2115C35.8338 14.2115 35.0145 14.4454 34.2087 14.9781" fill="#646464"/>
<path d="M5.62848 22.7015H19.0417L7.98225 14.9776C5.42732 13.3367 2.55427 14.2969 1.51687 17.0243C0.639694 20.1431 2.83322 22.7044 5.62848 22.7044" fill="#646464"/>
<path d="M0.592529 28.2907C0.592529 29.6059 1.66795 32.0001 5.77313 32.0001C9.55907 32.0001 10.7543 30.2632 10.7543 29.4668H7.82397C7.82397 29.4668 7.68479 30.5194 6.0316 30.5194C4.37842 30.5194 3.92989 29.1381 3.92989 28.3399C3.92989 27.5417 4.37725 26.2382 6.0316 26.2382C7.68597 26.2382 7.82397 27.1545 7.82397 27.1545H10.7543C10.7543 26.3569 9.87715 24.6447 5.77313 24.6447C1.66912 24.6447 0.592529 27.1943 0.592529 28.2907Z" fill="#646464"/>
<path d="M31.3247 28.2907C31.3247 29.6059 32.4007 32.0001 36.5053 32.0001C40.2906 32.0001 41.4865 30.2632 41.4865 29.4668H38.5585C38.5585 29.4668 38.4187 30.5194 36.765 30.5194C35.1112 30.5194 34.6597 29.1387 34.6597 28.3405C34.6597 27.5422 35.1077 26.2387 36.765 26.2387C38.4222 26.2387 38.5585 27.1545 38.5585 27.1545H41.4871C41.4871 26.3569 40.6099 24.6447 36.5059 24.6447C32.4019 24.6447 31.3253 27.1943 31.3253 28.2907" fill="#646464"/>
<path d="M18.7646 24.7675V29.2199L15.3542 24.7675H11.5175V31.8199H14.1478V27.3159L17.4986 31.8199H21.395V24.7675H18.7646Z" fill="#646464"/>
<path d="M27.1918 30.1351V30.1445H25V28.8492H27.1918V28.8532C27.6596 28.8532 28.0374 29.1409 28.0374 29.4965C28.0374 29.8521 27.6596 30.1351 27.1918 30.1351ZM25.0199 26.1392H27.1315V26.1422C27.4895 26.1422 27.7795 26.3761 27.7795 26.6685C27.7795 26.9609 27.4871 27.1948 27.1315 27.1948V27.1977H25.0199V26.1392ZM29.3438 28.069C29.8227 28.069 30.8239 27.5135 30.8239 26.4363C30.8239 24.903 27.9684 24.7662 27.5303 24.7662H22.2673V31.8192H27.5303C30.0607 31.8192 31.0771 31.0199 31.0771 29.6848C31.0771 28.3497 29.3438 28.0702 29.3438 28.0702V28.069Z" fill="#646464"/>
</svg>
