<svg width="101" height="101" viewBox="0 0 101 101" fill="none" xmlns="http://www.w3.org/2000/svg">
<path d="M44.7597 1.37769C48.4352 -0.144719 52.5648 -0.14472 56.2402 1.37769L81.1758 11.7063C84.8512 13.2287 87.7713 16.1488 89.2937 19.8243L99.6223 44.7597C101.145 48.4352 101.145 52.5648 99.6223 56.2402L89.2937 81.1758C87.7713 84.8512 84.8512 87.7713 81.1758 89.2937L56.2403 99.6223C52.5648 101.145 48.4352 101.145 44.7598 99.6223L19.8243 89.2937C16.1488 87.7713 13.2287 84.8512 11.7063 81.1758L1.37769 56.2403C-0.144719 52.5648 -0.14472 48.4352 1.37769 44.7598L11.7063 19.8243C13.2287 16.1488 16.1488 13.2287 19.8243 11.7063L44.7597 1.37769Z" fill="#FFC670"/>
</svg>
