<svg width="203" height="213" viewBox="0 0 203 213" fill="none" xmlns="http://www.w3.org/2000/svg">
<path d="M1.28698 199.526C-0.354947 204.799 2.58873 210.405 7.86186 212.047C13.135 213.689 18.7408 210.745 20.3827 205.472L1.28698 199.526ZM38.4614 113.775L40.1192 103.913C35.1869 103.084 30.4005 106.026 28.9136 110.802L38.4614 113.775ZM120.06 127.492L118.402 137.353C123.783 138.258 128.896 134.682 129.892 129.318L120.06 127.492ZM150.126 4.33925C146.999 -0.213464 140.774 -1.36968 136.221 1.75676L62.0305 52.7051C57.4777 55.8315 56.3215 62.0567 59.448 66.6094C62.5744 71.1622 68.7996 72.3184 73.3523 69.1919L139.3 23.9045L184.587 89.8518C187.713 94.4046 193.939 95.5608 198.491 92.4343C203.044 89.3079 204.2 83.0827 201.074 78.53L150.126 4.33925ZM20.3827 205.472L48.0093 116.748L28.9136 110.802L1.28698 199.526L20.3827 205.472ZM36.8037 123.636L118.402 137.353L121.718 117.63L40.1192 103.913L36.8037 123.636ZM129.892 129.318L151.714 11.8263L132.05 8.17408L110.228 125.666L129.892 129.318Z" fill="#FFD2BB"/>
</svg>
